# xmcd
# Track frame offsets:
# 150
# 14972
# 27735
# 39260
# 53762
# 70640
# 83867
# 97287
# 110850
# 126527
# 142620
# 164250
# 179477
#
# Disc length: 2602 seconds
# Revision: 0
# Processed by: cddbd v1.4PL0 Copyright (c) Steve Scherf et al.
# Submitted via: VisiTrax 2.9.5.180 - For more info visit www.synapsa.com
#
DISCID=bd0a280d
DTITLE=Andy Martin - Talkin' teardrops
DYEAR=2001
DGENRE=
TTITLE0=Room in my heart
TTITLE1=Never say never
TTITLE2=Talkin' teardrops
TTITLE3=Angel with a broken wing
TTITLE4=She wears her love just like Texas
TTITLE5=You give my heart a beatin'
TTITLE6=You cn't drive me crazy
TTITLE7=My heart keeps walkin' right back to you
TTITLE8=I never heard the thunder
TTITLE9=She cried all the way to Texas
TTITLE10=Chin up
TTITLE11=Different kind of flower
TTITLE12=A safe place to fall
EXTD=
EXTT0=
EXTT1=
EXTT2=
EXTT3=
EXTT4=
EXTT5=
EXTT6=
EXTT7=
EXTT8=
EXTT9=
EXTT10=
EXTT11=
EXTT12=
PLAYORDER=
